{"title":"The.Fighting.Sullivans.1944.DVDRip.DivX-VintageFilm","uid":6665793,"size":1468828080,"categoryP":"video","categoryS":"movies","magnet":"?xt=urn:btih:f4a4ad3effaff32bf31edc9a0fa6c33baca7f445&amp;dn=The.Fighting.Sullivans.1944.DVDRip.DivX-VintageFilm&amp;tr=udp%3A%2F%2Ftracker.openbittorrent.com%3A80&amp;tr=udp%3A%2F%2Fopen.demonii.com%3A1337&amp;tr=udp%3A%2F%2Ftracker.coppersurfer.tk%3A6969&amp;tr=udp%3A%2F%2Fexodus.desync.com%3A6969","seeders":0,"leechers":1,"uploader":"seanprince2","files":-1,"time":1315675717,"description":"\n\n\n\n\n\n\nThe.Fighting.Sullivans.1944.DVDRip.DivX-VintageFilm\n\n\n\n\n\n\nPlot: \n\nThe lives of a close-knit group of brothers growing up in Iowa during the days of the Great \n\nDepression and of World War II and their eventual deaths in action in the Pacific theater are \n\nchronicled in this film based on a true story. \n\n\n\nReview From IMDB\n\n\n\nThe Sullivan brothers grew up together in a small town in Iowa. They would eventually join the \n\nNavy after Pearl Harbor was attacked and would be killed in action. The story is a true one and \n\nheart wrenching to say the least. Thomas Mitchell is perfectly cast as the father. A very young \n\nBobby Driscoll plays little Al, the youngest of the 5 Sullivan boys. Anne Baxter and Ward Bond \n\nwere magnificent. Get yourself a box of Kleenex for this one folks. It will stay with you for a \n\nlong time.\n\n\n\n\n\nIMDB Rating = \n\n\n7.6/10 from 929 users    \n\n\n\n\n\nGeneral \nComplete name : The.Fighting.Sullivans.1944.DVDRip.DivX-VintageFilm.avi \nFormat : AVI \nFormat/Info : Audio Video Interleave \nFile size : 1.37 GiB \nDuration : 1h 52mn \nOverall bit rate : 1 745 Kbps \nWriting application : VirtualDubMod 1.5.4.1 (build 2178/release) \nWriting library : VirtualDubMod build 2178/release \n\nVideo \nID : 0 \nFormat : MPEG-4 Visual \nFormat settings, BVOP : Yes \nFormat settings, QPel : No \nFormat settings, GMC : No warppoints \nFormat settings, Matrix : Default (H.263) \nMuxing mode : Packed bitstream \nCodec ID : DX50 \nCodec ID/Hint : DivX 5 \nDuration : 1h 52mn \nBit rate : 1 630 Kbps \nWidth : 640 pixels \nHeight : 480 pixels \nDisplay aspect ratio : 4/3 \nFrame rate : 23.976 fps \nResolution : 24 bits \nColorimetry : 4:2:0 \nScan type : Progressive \nBits/(Pixel*Frame) : 0.221 \nStream size : 1.28 GiB (93%) \nWriting library : DivX 6.8.5 \n\nAudio \nID : 1 \nFormat : MPEG Audio \nFormat version : Version 1 \nFormat profile : Layer 3 \nCodec ID : 55 \nCodec ID/Hint : MP3 \nDuration : 1h 52mn \nBit rate mode : Variable \nBit rate : 102 Kbps \nNominal bit rate : 128 Kbps \nChannel(s) : 2 channels \nSampling rate : 48.0 KHz \nResolution : 16 bits \nStream size : 82.2 MiB (6%) \nAlignment : Aligned on interleaves \nInterleave, duration : 24 ms (0.58 video frame) \nInterleave, preload duration : 543 ms \nWriting library : LAME3.97  \nEncoding settings : -m j -V 4 -q 2 -lowpass 17 --abr 128 [/color]\n\n\n\n\n\n\n","torrent":{"xt":"urn:btih:f4a4ad3effaff32bf31edc9a0fa6c33baca7f445","amp;dn":"The.Fighting.Sullivans.1944.DVDRip.DivX-VintageFilm","amp;tr":["udp%3A%2F%2Ftracker.openbittorrent.com%3A80","udp%3A%2F%2Fopen.demonii.com%3A1337","udp%3A%2F%2Ftracker.coppersurfer.tk%3A6969","udp%3A%2F%2Fexodus.desync.com%3A6969"],"infoHash":"f4a4ad3effaff32bf31edc9a0fa6c33baca7f445","infoHashBuffer":{"type":"Buffer","data":[244,164,173,62,255,175,243,43,243,30,220,154,15,166,195,59,172,167,244,69]},"announce":[],"urlList":[]}}